<svg width="16" height="16" viewBox="0 0 16 16" fill="none" xmlns="http://www.w3.org/2000/svg">
<g clip-path="url(#clip0_19_2093)">
<path fill-rule="evenodd" clip-rule="evenodd" d="M8.70672 10.7067C8.51922 10.8939 8.26506 10.9991 8.00006 10.9991C7.73505 10.9991 7.48089 10.8939 7.29339 10.7067L3.52139 6.936C3.33388 6.7484 3.22858 6.494 3.22864 6.22877C3.2287 5.96353 3.33413 5.70918 3.52172 5.52167C3.70932 5.33416 3.96372 5.22885 4.22896 5.22892C4.4942 5.22898 4.74855 5.3344 4.93606 5.522L8.00006 8.586L11.0641 5.522C11.2526 5.33975 11.5051 5.23884 11.7673 5.24099C12.0295 5.24314 12.2804 5.3482 12.4659 5.53352C12.6514 5.71884 12.7567 5.9696 12.7591 6.2318C12.7615 6.494 12.6608 6.74665 12.4787 6.93533L8.70739 10.7073L8.70672 10.7067Z" fill="#5A5959"/>
</g>
<defs>
<clipPath id="clip0_19_2093">
<rect width="16" height="16" fill="white"/>
</clipPath>
</defs>
</svg>
