<svg width="49" height="48" viewBox="0 0 49 48" fill="none" xmlns="http://www.w3.org/2000/svg">
<path d="M32.5 32L24.5 24L16.5 32" stroke="black" stroke-opacity="0.4" stroke-width="2" stroke-linecap="round" stroke-linejoin="round"/>
<path d="M24.5 24V42" stroke="black" stroke-opacity="0.4" stroke-width="2" stroke-linecap="round" stroke-linejoin="round"/>
<path d="M41.28 36.78C43.2307 35.7166 44.7716 34.0338 45.6597 31.9973C46.5478 29.9608 46.7324 27.6865 46.1844 25.5334C45.6364 23.3803 44.387 21.4711 42.6333 20.1069C40.8797 18.7428 38.7217 18.0015 36.5 18H33.98C33.3746 15.6585 32.2463 13.4847 30.6799 11.642C29.1134 9.79933 27.1497 8.33573 24.9362 7.36124C22.7227 6.38676 20.3171 5.92675 17.9002 6.01579C15.4833 6.10484 13.1181 6.74063 10.9823 7.87536C8.84655 9.01009 6.9958 10.6142 5.56923 12.5672C4.14265 14.5202 3.17736 16.7711 2.74594 19.1508C2.31452 21.5305 2.42819 23.9771 3.07841 26.3066C3.72862 28.636 4.89847 30.7878 6.49998 32.6" stroke="black" stroke-opacity="0.4" stroke-width="2" stroke-linecap="round" stroke-linejoin="round"/>
<path d="M32.5 32L24.5 24L16.5 32" stroke="black" stroke-opacity="0.4" stroke-width="2" stroke-linecap="round" stroke-linejoin="round"/>
</svg>
