<svg width="118" height="118" viewBox="0 0 118 118" fill="none" xmlns="http://www.w3.org/2000/svg">
<g filter="url(#filter0_d_103_659)">
<circle cx="59" cy="49" r="24" fill="white"/>
</g>
<path d="M56.6825 37.06C56.8693 36.5984 57.1896 36.2031 57.6025 35.9247C58.0154 35.6464 58.502 35.4977 59 35.4977C59.498 35.4977 59.9846 35.6464 60.3975 35.9247C60.8104 36.2031 61.1307 36.5984 61.3175 37.06C63.1659 37.5684 64.7964 38.6694 65.9585 40.1942C67.1205 41.7189 67.7499 43.5829 67.75 45.5V51.3713L70.04 54.8062C70.1656 54.9945 70.2377 55.2133 70.2487 55.4394C70.2597 55.6654 70.2091 55.8902 70.1024 56.0897C69.9956 56.2892 69.8367 56.4561 69.6425 56.5723C69.4484 56.6886 69.2263 56.75 69 56.75H63.3313C63.1808 57.7914 62.6601 58.7437 61.8646 59.4324C61.0692 60.1212 60.0522 60.5003 59 60.5003C57.9478 60.5003 56.9308 60.1212 56.1354 59.4324C55.3399 58.7437 54.8193 57.7914 54.6688 56.75H49C48.7737 56.75 48.5516 56.6886 48.3575 56.5723C48.1634 56.4561 48.0044 56.2892 47.8977 56.0897C47.7909 55.8902 47.7403 55.6654 47.7513 55.4394C47.7623 55.2133 47.8344 54.9945 47.96 54.8062L50.25 51.3713V45.5C50.25 41.47 52.975 38.075 56.6825 37.06ZM57.2325 56.75C57.3616 57.1158 57.601 57.4326 57.9177 57.6566C58.2343 57.8807 58.6127 58.001 59.0006 58.001C59.3886 58.001 59.7669 57.8807 60.0836 57.6566C60.4003 57.4326 60.6397 57.1158 60.7688 56.75H57.2325ZM59 39.25C57.3424 39.25 55.7527 39.9085 54.5806 41.0806C53.4085 42.2527 52.75 43.8424 52.75 45.5V51.75C52.7501 51.9969 52.677 52.2383 52.54 52.4438L51.3363 54.25H66.6625L65.4588 52.4438C65.3222 52.2382 65.2496 51.9968 65.25 51.75V45.5C65.25 43.8424 64.5915 42.2527 63.4194 41.0806C62.2473 39.9085 60.6576 39.25 59 39.25Z" fill="#8496D5"/>
<circle cx="65.5" cy="39.5" r="4.5" fill="#3E68FF"/>
<defs>
<filter id="filter0_d_103_659" x="0" y="0" width="118" height="118" filterUnits="userSpaceOnUse" color-interpolation-filters="sRGB">
<feFlood flood-opacity="0" result="BackgroundImageFix"/>
<feColorMatrix in="SourceAlpha" type="matrix" values="0 0 0 0 0 0 0 0 0 0 0 0 0 0 0 0 0 0 127 0" result="hardAlpha"/>
<feOffset dy="10"/>
<feGaussianBlur stdDeviation="17.5"/>
<feColorMatrix type="matrix" values="0 0 0 0 0 0 0 0 0 0 0 0 0 0 0 0 0 0 0.0305125 0"/>
<feBlend mode="normal" in2="BackgroundImageFix" result="effect1_dropShadow_103_659"/>
<feBlend mode="normal" in="SourceGraphic" in2="effect1_dropShadow_103_659" result="shape"/>
</filter>
</defs>
</svg>
