<svg width="30" height="30" viewBox="0 0 30 30" fill="none" xmlns="http://www.w3.org/2000/svg">
<path d="M12.9488 1.245C13.5305 0.778966 14.2537 0.525024 14.9991 0.525024C15.7445 0.525024 16.4676 0.778966 17.0494 1.245L26.8931 9.12C27.6713 9.7425 28.125 10.6856 28.125 11.6831V24.8438C28.125 25.714 27.7793 26.5486 27.1639 27.1639C26.5486 27.7793 25.714 28.125 24.8438 28.125H18.2812C17.9083 28.125 17.5506 27.9768 17.2869 27.7131C17.0232 27.4494 16.875 27.0917 16.875 26.7188V16.875H13.125V26.7188C13.125 27.0917 12.9768 27.4494 12.7131 27.7131C12.4494 27.9768 12.0917 28.125 11.7188 28.125H5.15625C4.28601 28.125 3.45141 27.7793 2.83606 27.1639C2.2207 26.5486 1.875 25.714 1.875 24.8438V11.6813C1.875 10.6856 2.32875 9.7425 3.10687 9.12L12.9488 1.245ZM15.2925 3.44063C15.2094 3.3743 15.1063 3.33817 15 3.33817C14.8937 3.33817 14.7906 3.3743 14.7075 3.44063L4.86375 11.3156C4.8086 11.3597 4.76411 11.4156 4.73359 11.4792C4.70307 11.5429 4.68732 11.6126 4.6875 11.6831V24.8438C4.6875 25.1025 4.8975 25.3125 5.15625 25.3125H10.3125V15.4688C10.3125 15.0958 10.4607 14.7381 10.7244 14.4744C10.9881 14.2107 11.3458 14.0625 11.7188 14.0625H18.2812C18.6542 14.0625 19.0119 14.2107 19.2756 14.4744C19.5393 14.7381 19.6875 15.0958 19.6875 15.4688V25.3125H24.8438C24.9681 25.3125 25.0873 25.2631 25.1752 25.1752C25.2631 25.0873 25.3125 24.9681 25.3125 24.8438V11.6813C25.3124 11.611 25.2965 11.5417 25.266 11.4784C25.2355 11.4151 25.1912 11.3595 25.1362 11.3156L15.2925 3.44063Z" fill="white"/>
</svg>
