<svg width="30" height="30" viewBox="0 0 30 30" fill="none" xmlns="http://www.w3.org/2000/svg">
<path d="M10 17.3562C9.74167 17.3562 9.51667 17.2604 9.325 17.0687C9.13333 16.8771 9.0375 16.6521 9.0375 16.3937C9.0375 16.1354 9.13333 15.9108 9.325 15.72C9.51667 15.5283 9.74167 15.4325 10 15.4325C10.2583 15.4325 10.4833 15.5283 10.675 15.72C10.8667 15.9117 10.9625 16.1367 10.9625 16.395C10.9625 16.6525 10.8667 16.8771 10.675 17.0687C10.4833 17.2604 10.2583 17.3562 10 17.3562ZM15 17.3562C14.7417 17.3562 14.5167 17.2604 14.325 17.0687C14.1333 16.8771 14.0375 16.6521 14.0375 16.3937C14.0375 16.1354 14.1333 15.9108 14.325 15.72C14.5167 15.5283 14.7417 15.4325 15 15.4325C15.2583 15.4325 15.4833 15.5283 15.675 15.72C15.8667 15.9117 15.9625 16.1367 15.9625 16.395C15.9625 16.6525 15.8667 16.8771 15.675 17.0687C15.4833 17.2604 15.2583 17.3562 15 17.3562ZM20 17.3562C19.7417 17.3562 19.5167 17.2604 19.325 17.0687C19.1333 16.8771 19.0375 16.6521 19.0375 16.3937C19.0375 16.1354 19.1333 15.9108 19.325 15.72C19.5167 15.5283 19.7417 15.4325 20 15.4325C20.2583 15.4325 20.4833 15.5283 20.675 15.72C20.8667 15.9117 20.9625 16.1367 20.9625 16.395C20.9625 16.6525 20.8667 16.8771 20.675 17.0687C20.4833 17.2604 20.2583 17.3562 20 17.3562ZM7.01875 26.25C6.44375 26.25 5.96375 26.0575 5.57875 25.6725C5.19292 25.2867 5 24.8062 5 24.2312V8.26874C5 7.69374 5.19292 7.21374 5.57875 6.82874C5.96375 6.44291 6.44375 6.24999 7.01875 6.24999H9.23125V3.46249H10.5775V6.24999H19.5187V3.46249H20.7687V6.24999H22.9812C23.5562 6.24999 24.0362 6.44291 24.4212 6.82874C24.8071 7.21374 25 7.69374 25 8.26874V24.2312C25 24.8062 24.8075 25.2862 24.4225 25.6712C24.0367 26.0571 23.5562 26.25 22.9812 26.25H7.01875ZM7.01875 25H22.9812C23.1729 25 23.3492 24.92 23.51 24.76C23.67 24.5992 23.75 24.4229 23.75 24.2312V13.2687H6.25V24.2312C6.25 24.4229 6.33 24.5992 6.49 24.76C6.65083 24.92 6.82708 25 7.01875 25Z" fill="#8496D5"/>
</svg>
