<svg width="26" height="26" viewBox="0 0 26 26" fill="none" xmlns="http://www.w3.org/2000/svg">
<path d="M3.25002 22.75L7.95494 18.0451M7.95494 18.0451C7.15014 17.2403 6.51174 16.2849 6.07619 15.2334C5.64064 14.1818 5.41646 13.0548 5.41646 11.9167C5.41646 10.7785 5.64064 9.65152 6.07619 8.6C6.51174 7.54849 7.15014 6.59306 7.95494 5.78826C8.75973 4.98346 9.71516 4.34507 10.7667 3.90951C11.8182 3.47396 12.9452 3.24979 14.0834 3.24979C15.2215 3.24979 16.3485 3.47396 17.4 3.90951C18.4515 4.34507 19.407 4.98346 20.2118 5.78826C21.8371 7.41362 22.7502 9.61807 22.7502 11.9167C22.7502 14.2153 21.8371 16.4197 20.2118 18.0451C18.5864 19.6705 16.382 20.5836 14.0834 20.5836C11.7848 20.5836 9.58029 19.6705 7.95494 18.0451Z" stroke="#8496D5" stroke-width="1.33333" stroke-linecap="round" stroke-linejoin="round"/>
</svg>
