<svg width="21" height="20" viewBox="0 0 21 20" fill="none" xmlns="http://www.w3.org/2000/svg">
<path d="M8.83335 13.3334H12.1667C12.625 13.3334 13 12.9584 13 12.5V8.33336H14.325C15.0667 8.33336 15.4417 7.43336 14.9167 6.90836L11.0917 3.08336C11.0146 3.00611 10.923 2.94482 10.8222 2.903C10.7214 2.86119 10.6133 2.83966 10.5042 2.83966C10.395 2.83966 10.287 2.86119 10.1862 2.903C10.0854 2.94482 9.99378 3.00611 9.91669 3.08336L6.09169 6.90836C5.56669 7.43336 5.93335 8.33336 6.67502 8.33336H8.00002V12.5C8.00002 12.9584 8.37502 13.3334 8.83335 13.3334ZM5.50002 15H15.5C15.9584 15 16.3334 15.375 16.3334 15.8334C16.3334 16.2917 15.9584 16.6667 15.5 16.6667H5.50002C5.04169 16.6667 4.66669 16.2917 4.66669 15.8334C4.66669 15.375 5.04169 15 5.50002 15Z" fill="white"/>
</svg>
